<svg width="411" height="242" viewBox="0 0 411 242" fill="none" xmlns="http://www.w3.org/2000/svg">
<path d="M149.438 118.876H260.389V199.968C260.389 208.252 253.673 214.968 245.389 214.968H164.438C156.154 214.968 149.438 208.252 149.438 199.968V118.876Z" fill="#BF8FD3"/>
<path d="M193.343 14.025C199.342 6.75265 210.484 6.75263 216.484 14.025L282.736 94.3306C290.807 104.114 283.849 118.876 271.166 118.876H138.661C125.978 118.876 119.019 104.114 127.091 94.3306L193.343 14.025Z" fill="#8E44AD"/>
<mask id="mask0" mask-type="alpha" maskUnits="userSpaceOnUse" x="123" y="8" width="164" height="111">
<path d="M193.343 14.025C199.342 6.75265 210.484 6.75263 216.484 14.025L282.736 94.3306C290.807 104.114 283.849 118.876 271.166 118.876H138.661C125.978 118.876 119.019 104.114 127.091 94.3306L193.343 14.025Z" fill="#8E44AD"/>
</mask>
<g mask="url(#mask0)">
<rect x="204.913" y="-0.990646" width="83.2135" height="119.867" fill="#70298D"/>
</g>
<mask id="mask1" mask-type="alpha" maskUnits="userSpaceOnUse" x="149" y="118" width="112" height="97">
<path d="M149.438 118.876H260.389V199.968C260.389 208.252 253.673 214.968 245.389 214.968H164.438C156.154 214.968 149.438 208.252 149.438 199.968V118.876Z" fill="#BF8FD3"/>
</mask>
<g mask="url(#mask1)">
<rect x="204.913" y="118.876" width="78.2603" height="96.0917" fill="#9239B7"/>
</g>
<path d="M41.3957 96.793C44.3666 93.8135 49.1926 93.8135 52.1635 96.793L88.615 133.349C91.5739 136.317 91.5739 141.119 88.615 144.086V144.086C85.644 147.066 80.8181 147.066 77.8471 144.086L41.3957 107.53C38.4368 104.563 38.4368 99.7604 41.3957 96.793V96.793Z" fill="#8E44AD"/>
<path d="M87.0593 135.478C84.2437 132.655 79.6698 132.656 76.8554 135.481L41.1096 171.361C38.3085 174.173 38.3095 178.721 41.1119 181.531V181.531C43.9275 184.355 48.5014 184.354 51.3157 181.529L87.0615 145.649C89.8627 142.837 89.8617 138.289 87.0593 135.478V135.478Z" fill="#8E44AD"/>
<path d="M367.945 96.793C364.974 93.8135 360.148 93.8135 357.177 96.793L320.725 133.349C317.767 136.317 317.767 141.119 320.725 144.086V144.086C323.696 147.066 328.522 147.066 331.493 144.086L367.945 107.53C370.904 104.563 370.904 99.7604 367.945 96.793V96.793Z" fill="#8E44AD"/>
<path d="M322.281 135.478C325.097 132.655 329.671 132.656 332.485 135.481L368.231 171.361C371.032 174.173 371.031 178.721 368.229 181.531V181.531C365.413 184.355 360.839 184.354 358.025 181.529L322.279 145.649C319.478 142.837 319.479 138.289 322.281 135.478V135.478Z" fill="#8E44AD"/>
<rect y="240.713" width="410.628" height="1.28723" fill="#BF8FD3"/>
<path d="M195.045 175.641C195.045 178.703 194.41 181.424 193.138 183.805C191.885 186.169 190.113 187.986 187.821 189.257C185.529 190.528 182.942 191.164 180.06 191.164C177.124 191.164 174.51 190.537 172.218 189.284C169.926 188.031 168.145 186.222 166.874 183.859C165.603 181.478 164.967 178.748 164.967 175.668V174.567C164.967 171.506 165.585 168.793 166.82 166.43C168.055 164.067 169.819 162.24 172.111 160.951C174.42 159.662 177.052 159.018 180.006 159.018C182.889 159.018 185.476 159.662 187.767 160.951C190.059 162.222 191.832 164.022 193.085 166.349C194.356 168.659 195.009 171.309 195.045 174.298V175.641ZM185.914 174.54C185.914 171.783 185.395 169.661 184.357 168.175C183.318 166.672 181.868 165.92 180.006 165.92C176.067 165.92 174.098 168.847 174.098 174.701V175.641C174.098 178.327 174.59 180.439 175.575 181.979C176.56 183.519 178.055 184.289 180.06 184.289C181.85 184.289 183.265 183.537 184.303 182.033C185.341 180.529 185.879 178.47 185.914 175.856V174.54ZM235.054 182.194C235.054 181.245 234.643 180.484 233.819 179.911C232.996 179.338 231.545 178.81 229.469 178.327C227.41 177.843 225.673 177.333 224.259 176.796C222.862 176.259 221.707 175.623 220.794 174.889C219.881 174.137 219.21 173.242 218.78 172.204C218.35 171.165 218.136 169.912 218.136 168.444C218.136 166.636 218.655 165.015 219.693 163.583C220.749 162.133 222.209 161.014 224.071 160.226C225.95 159.421 228.027 159.018 230.301 159.018C234.383 159.018 237.633 159.904 240.05 161.676C242.467 163.431 243.675 165.821 243.675 168.847H234.598C234.598 167.88 234.195 167.048 233.389 166.349C232.602 165.651 231.599 165.302 230.382 165.302C229.254 165.302 228.341 165.579 227.642 166.134C226.944 166.672 226.595 167.307 226.595 168.041C226.595 168.847 226.944 169.491 227.642 169.975C228.359 170.458 229.612 170.933 231.402 171.398C235.86 172.329 238.993 173.609 240.802 175.238C242.628 176.85 243.541 179.07 243.541 181.899C243.541 184.763 242.422 187.028 240.184 188.693C237.946 190.34 234.875 191.164 230.972 191.164C228.269 191.164 225.852 190.743 223.721 189.902C221.591 189.042 219.944 187.825 218.78 186.249C217.634 184.656 217.061 182.758 217.061 180.556H226.165C226.165 182.167 226.577 183.295 227.401 183.94C228.242 184.584 229.639 184.906 231.59 184.906C232.682 184.906 233.533 184.665 234.141 184.181C234.75 183.68 235.054 183.018 235.054 182.194Z" fill="white"/>
</svg>
