<svg width="128" height="128" viewBox="0 0 128 128" fill="none" xmlns="http://www.w3.org/2000/svg">
<rect width="128" height="128" fill="#EA524D"/>
<path d="M28.7461 64.4062C28.7461 59.3607 29.625 54.6243 31.3828 50.1973C33.1406 45.7702 35.6471 41.929 38.9023 38.6738C42.1901 35.3861 46.1615 32.7982 50.8164 30.9102C55.4714 29.0221 60.6797 28.0781 66.4414 28.0781C71.8451 28.0781 76.6139 29.0221 80.748 30.9102C84.8822 32.7982 88.349 35.3372 91.1484 38.5273C93.9805 41.6849 96.1126 45.347 97.5449 49.5137C99.0098 53.6803 99.7422 58.0423 99.7422 62.5996C99.7422 66.0176 99.319 69.3216 98.4727 72.5117C97.6589 75.6693 96.487 78.6315 94.957 81.3984C93.4596 84.1654 91.6367 86.7044 89.4883 89.0156C87.3398 91.2943 84.9473 93.2474 82.3105 94.875C79.6738 96.5026 76.8255 97.7559 73.7656 98.6348C70.7057 99.5462 67.4993 100.002 64.1465 100.002C58.0918 100.002 52.8346 99.0579 48.375 97.1699C43.9479 95.2819 40.2695 92.7266 37.3398 89.5039C34.4427 86.2487 32.278 82.4727 30.8457 78.1758C29.446 73.8464 28.7461 69.2565 28.7461 64.4062ZM63.6582 38.918C60.7611 38.918 58.2383 39.6178 56.0898 41.0176C53.9414 42.4173 52.151 44.2402 50.7188 46.4863C49.319 48.6999 48.2611 51.1901 47.5449 53.957C46.8613 56.6914 46.5195 59.4095 46.5195 62.1113C46.5195 65.7572 46.9427 69.224 47.7891 72.5117C48.6354 75.7669 49.8398 78.6315 51.4023 81.1055C52.9974 83.5469 54.9017 85.5 57.1152 86.9648C59.3613 88.3971 61.8678 89.1133 64.6348 89.1133C67.5319 89.1133 70.0547 88.4297 72.2031 87.0625C74.3516 85.6628 76.1257 83.8561 77.5254 81.6426C78.9577 79.3965 80.0156 76.89 80.6992 74.123C81.3828 71.3561 81.7246 68.5892 81.7246 65.8223C81.7246 62.209 81.3014 58.7747 80.4551 55.5195C79.6413 52.2643 78.4531 49.416 76.8906 46.9746C75.3281 44.5007 73.4238 42.5475 71.1777 41.1152C68.9642 39.6504 66.4577 38.918 63.6582 38.918Z" fill="white"/>
</svg>
