<svg width="128" height="128" viewBox="0 0 128 128" fill="none" xmlns="http://www.w3.org/2000/svg">
<rect x="5" y="5" width="118" height="118" stroke="#EA524D" stroke-width="10"/>
<path d="M25.7578 64.125C25.7578 60.0885 26.4609 56.2995 27.8672 52.7578C29.2734 49.2161 31.2786 46.1432 33.8828 43.5391C36.513 40.9089 39.6901 38.8385 43.4141 37.3281C47.138 35.8177 51.3047 35.0625 55.9141 35.0625C60.237 35.0625 64.0521 35.8177 67.3594 37.3281C70.6667 38.8385 73.4401 40.8698 75.6797 43.4219C77.9453 45.9479 79.651 48.8776 80.7969 52.2109C81.9688 55.5443 82.5547 59.0339 82.5547 62.6797C82.5547 65.4141 82.2161 68.0573 81.5391 70.6094C80.888 73.1354 79.9505 75.5052 78.7266 77.7188C77.5286 79.9323 76.0703 81.9635 74.3516 83.8125C72.6328 85.6354 70.7188 87.1979 68.6094 88.5C66.5 89.8021 64.2214 90.8047 61.7734 91.5078C59.3255 92.237 56.7604 92.6016 54.0781 92.6016C49.2344 92.6016 45.0286 91.8464 41.4609 90.3359C37.9193 88.8255 34.9766 86.7812 32.6328 84.2031C30.3151 81.599 28.5833 78.5781 27.4375 75.1406C26.3177 71.6771 25.7578 68.0052 25.7578 64.125ZM53.6875 43.7344C51.3698 43.7344 49.3516 44.2943 47.6328 45.4141C45.9141 46.5339 44.4818 47.9922 43.3359 49.7891C42.2161 51.5599 41.3698 53.5521 40.7969 55.7656C40.25 57.9531 39.9766 60.1276 39.9766 62.2891C39.9766 65.2057 40.3151 67.9792 40.9922 70.6094C41.6693 73.2135 42.6328 75.5052 43.8828 77.4844C45.1589 79.4375 46.6823 81 48.4531 82.1719C50.25 83.3177 52.2552 83.8906 54.4688 83.8906C56.7865 83.8906 58.8047 83.3438 60.5234 82.25C62.2422 81.1302 63.6615 79.6849 64.7812 77.9141C65.9271 76.1172 66.7734 74.112 67.3203 71.8984C67.8672 69.6849 68.1406 67.4714 68.1406 65.2578C68.1406 62.3672 67.8021 59.6198 67.125 57.0156C66.474 54.4115 65.5234 52.1328 64.2734 50.1797C63.0234 48.2005 61.5 46.638 59.7031 45.4922C57.9323 44.3203 55.9271 43.7344 53.6875 43.7344ZM90.7578 92.1328L87.5547 89.0078C87.6589 87.8359 87.737 86.6901 87.7891 85.5703C87.8411 84.4505 87.8932 83.4349 87.9453 82.5234C87.9974 81.4818 88.0234 80.4922 88.0234 79.5547L97.6328 76.9375L100.836 80.0234C100.706 81.1953 100.602 82.3411 100.523 83.4609C100.471 84.5807 100.419 85.5964 100.367 86.5078C100.315 87.5495 100.289 88.5391 100.289 89.4766L90.7578 92.1328Z" fill="#EA524D"/>
</svg>
