<svg width="292" height="58" viewBox="0 0 292 58" fill="none" xmlns="http://www.w3.org/2000/svg">
<path d="M0.141602 24.5234C0.141602 21.7484 0.625 19.1434 1.5918 16.7085C2.55859 14.2736 3.93717 12.161 5.72754 10.3706C7.53581 8.56234 9.72005 7.139 12.2803 6.10059C14.8405 5.06217 17.7051 4.54297 20.874 4.54297C23.846 4.54297 26.4689 5.06217 28.7427 6.10059C31.0164 7.139 32.9232 8.53548 34.4629 10.29C36.0205 12.0267 37.1932 14.0409 37.981 16.3325C38.7866 18.6242 39.1895 21.0233 39.1895 23.5298C39.1895 25.4097 38.9567 27.2269 38.4912 28.9814C38.0436 30.7181 37.3991 32.3473 36.5576 33.8691C35.734 35.391 34.7314 36.7874 33.5498 38.0586C32.3682 39.3118 31.0522 40.3861 29.6021 41.2812C28.1519 42.1764 26.5853 42.8657 24.9023 43.3491C23.2194 43.8504 21.4559 44.1011 19.6118 44.1011C16.2817 44.1011 13.3903 43.5819 10.9375 42.5435C8.5026 41.505 6.47949 40.0996 4.86816 38.3271C3.27474 36.5368 2.08415 34.46 1.29639 32.0967C0.52653 29.7155 0.141602 27.1911 0.141602 24.5234ZM19.3433 10.5049C17.7498 10.5049 16.3623 10.8898 15.1807 11.6597C13.999 12.4295 13.0143 13.4321 12.2266 14.6675C11.4567 15.8849 10.8748 17.2546 10.481 18.7764C10.105 20.2803 9.91699 21.7752 9.91699 23.2612C9.91699 25.2664 10.1497 27.1732 10.6152 28.9814C11.0807 30.7718 11.7432 32.3473 12.6025 33.708C13.4798 35.0508 14.5272 36.125 15.7446 36.9307C16.98 37.7184 18.3586 38.1123 19.8804 38.1123C21.4738 38.1123 22.8613 37.7363 24.043 36.9844C25.2246 36.2145 26.2004 35.2209 26.9702 34.0034C27.758 32.7681 28.3398 31.3895 28.7158 29.8677C29.0918 28.3459 29.2798 26.8241 29.2798 25.3022C29.2798 23.3149 29.047 21.4261 28.5815 19.6357C28.134 17.8454 27.4805 16.2788 26.6211 14.936C25.7617 13.5754 24.7144 12.5011 23.479 11.7134C22.2616 10.9077 20.883 10.5049 19.3433 10.5049ZM52.4023 46.0347C52.3844 46.715 52.4292 47.4222 52.5366 48.1562C52.644 48.8903 52.832 49.5617 53.1006 50.1704C53.387 50.7791 53.772 51.2804 54.2554 51.6743C54.7567 52.0682 55.3833 52.2741 56.1353 52.292L55.9741 56.6426H55.3833C53.0021 56.6426 50.8358 56.7321 48.8843 56.9111C46.9507 57.0902 45.0798 57.4035 43.2715 57.8511C43.5579 55.2909 43.8175 52.6859 44.0503 50.0361C44.3009 47.4043 44.5158 44.853 44.6948 42.3823C44.8739 39.8937 45.0081 37.5662 45.0977 35.3999C45.2051 33.2157 45.2588 31.3089 45.2588 29.6797C45.2588 27.9967 44.9813 26.7166 44.4263 25.8394C43.8713 24.9621 42.8776 24.4697 41.4453 24.3623L41.6333 20.0117C42.6001 19.9759 43.5848 19.9043 44.5874 19.7969C45.6079 19.6715 46.5926 19.5283 47.5415 19.3672C48.5083 19.1882 49.4303 18.9912 50.3076 18.7764C51.1849 18.5615 51.9906 18.3467 52.7246 18.1318L51.731 23.3149C52.5545 22.3302 53.3691 21.5067 54.1748 20.8442C54.9984 20.1639 55.813 19.6268 56.6187 19.2329C57.4243 18.839 58.221 18.5615 59.0088 18.4004C59.7965 18.2214 60.5664 18.1318 61.3184 18.1318C62.7327 18.1318 63.9502 18.4093 64.9707 18.9644C66.0091 19.5194 66.8595 20.2624 67.522 21.1934C68.1844 22.1064 68.6678 23.1538 68.9722 24.3354C69.2944 25.5171 69.4556 26.7345 69.4556 27.9878C69.4556 30.6017 69.0527 32.8934 68.2471 34.8628C67.4414 36.8143 66.3761 38.4435 65.0513 39.7505C63.7264 41.0575 62.2135 42.0422 60.5127 42.7046C58.8298 43.3491 57.1021 43.6714 55.3296 43.6714C55.1685 43.6714 54.9536 43.6624 54.6851 43.6445C54.4344 43.6445 54.1748 43.6356 53.9062 43.6177C53.6377 43.6177 53.3691 43.6087 53.1006 43.5908C52.8499 43.5729 52.6351 43.555 52.4561 43.5371L52.4023 46.0347ZM57.5586 25.3022C56.7887 25.3022 56.0278 25.4365 55.2759 25.7051C54.5239 25.9557 53.8436 26.2601 53.2349 26.6182C53.1274 27.7461 53.0379 28.9546 52.9663 30.2437C52.8947 31.5327 52.832 32.7323 52.7783 33.8423C52.7067 35.1493 52.653 36.4383 52.6172 37.7095C53.1722 37.8527 53.7093 37.9601 54.2285 38.0317C54.7656 38.0854 55.2938 38.1123 55.813 38.1123C56.547 38.1123 57.2363 37.9064 57.8809 37.4946C58.5254 37.0828 59.0894 36.5189 59.5728 35.8027C60.0562 35.0687 60.4411 34.2093 60.7275 33.2246C61.014 32.2399 61.1572 31.1746 61.1572 30.0288C61.1572 28.5249 60.826 27.3612 60.1636 26.5376C59.5011 25.714 58.6328 25.3022 57.5586 25.3022ZM79.9023 32.9829C80.0277 33.6453 80.2604 34.263 80.6006 34.8359C80.9408 35.391 81.3883 35.8743 81.9434 36.2861C82.4984 36.68 83.1519 36.9933 83.9038 37.2261C84.6737 37.4409 85.5599 37.5483 86.5625 37.5483C87.4756 37.5483 88.4961 37.4678 89.624 37.3066C90.7699 37.1455 91.853 36.859 92.8735 36.4473L94.5923 39.8042C93.1242 41.0396 91.4681 41.9974 89.624 42.6777C87.7979 43.3402 85.7658 43.6714 83.5278 43.6714C81.6659 43.6714 80.0008 43.3939 78.5327 42.8389C77.0825 42.266 75.8561 41.4692 74.8535 40.4487C73.8688 39.4282 73.1169 38.2108 72.5977 36.7964C72.0785 35.3641 71.8188 33.7975 71.8188 32.0967C71.8188 30.2347 72.1053 28.4622 72.6782 26.7793C73.2511 25.0785 74.0837 23.5924 75.1758 22.3213C76.2858 21.0322 77.6375 20.0117 79.231 19.2598C80.8423 18.5078 82.6774 18.1318 84.7363 18.1318C86.4909 18.1318 88.0485 18.3825 89.4092 18.8838C90.7699 19.3672 91.9157 20.0565 92.8467 20.9517C93.7777 21.8289 94.4849 22.8853 94.9683 24.1206C95.4517 25.3381 95.6934 26.6808 95.6934 28.1489C95.6934 28.6502 95.6665 29.1694 95.6128 29.7065C95.5591 30.2257 95.5054 30.7091 95.4517 31.1567C95.38 31.6759 95.3084 32.1772 95.2368 32.6606C94.1626 32.8218 92.8914 32.9382 91.4233 33.0098C89.9552 33.0635 88.3887 33.0903 86.7236 33.0903C86.1686 33.0903 85.5868 33.0903 84.978 33.0903C84.3693 33.0724 83.7606 33.0635 83.1519 33.0635C82.561 33.0456 81.9792 33.0366 81.4062 33.0366C80.8512 33.0187 80.3499 33.0008 79.9023 32.9829ZM84.5215 24.0132C84.056 24.0132 83.5994 24.1027 83.1519 24.2817C82.7043 24.4608 82.2835 24.7383 81.8896 25.1143C81.4958 25.4902 81.1466 25.9647 80.8423 26.5376C80.5558 27.0926 80.332 27.755 80.1709 28.5249C80.8691 28.507 81.6211 28.4622 82.4268 28.3906C83.2503 28.319 84.0202 28.2474 84.7363 28.1758C85.4525 28.1042 86.0612 28.0415 86.5625 27.9878C87.0638 27.9162 87.3592 27.8625 87.4487 27.8267V27.4238C87.4487 26.4391 87.1981 25.6245 86.6968 24.98C86.2134 24.3354 85.4883 24.0132 84.5215 24.0132ZM108.799 23.4761C109.408 22.7778 110.061 22.1064 110.759 21.4619C111.475 20.8174 112.236 20.2534 113.042 19.77C113.866 19.2687 114.743 18.8748 115.674 18.5884C116.623 18.284 117.625 18.1318 118.682 18.1318C120.973 18.1318 122.71 18.8659 123.892 20.334C125.073 21.8021 125.664 23.9505 125.664 26.7793C125.664 27.3701 125.637 28.0326 125.583 28.7666C125.53 29.4827 125.476 30.181 125.422 30.8613C125.369 31.5417 125.315 32.1593 125.261 32.7144C125.208 33.2694 125.181 33.6722 125.181 33.9229C125.181 34.5853 125.252 35.203 125.396 35.7759C125.539 36.3488 125.763 36.8501 126.067 37.2798C126.389 37.7095 126.783 38.0496 127.249 38.3003C127.714 38.533 128.269 38.6494 128.914 38.6494L128.752 43H128.188C126.899 43 125.727 43.0179 124.67 43.0537C123.632 43.0895 122.647 43.1432 121.716 43.2148C120.785 43.3044 119.872 43.4207 118.977 43.564C118.082 43.7072 117.142 43.8862 116.157 44.1011C116.39 42.812 116.596 41.4603 116.775 40.0459C116.972 38.6136 117.133 37.2261 117.258 35.8833C117.402 34.5405 117.509 33.3052 117.581 32.1772C117.652 31.0314 117.688 30.0915 117.688 29.3574C117.688 28.5876 117.616 27.943 117.473 27.4238C117.348 26.9046 117.16 26.4928 116.909 26.1885C116.659 25.8662 116.336 25.6424 115.942 25.5171C115.566 25.3739 115.128 25.3022 114.626 25.3022C113.821 25.3022 113.033 25.4365 112.263 25.7051C111.493 25.9736 110.831 26.278 110.276 26.6182C110.24 27.012 110.204 27.5492 110.168 28.2295C110.133 28.8919 110.097 29.6528 110.061 30.5122C110.025 31.3716 109.998 32.3115 109.98 33.332C109.963 34.3346 109.954 35.382 109.954 36.4741C109.972 37.5483 109.989 38.6405 110.007 39.7505C110.043 40.8605 110.097 41.9437 110.168 43C109.13 43 108.172 43.0269 107.295 43.0806C106.436 43.1522 105.63 43.2327 104.878 43.3223C104.126 43.4297 103.41 43.5461 102.729 43.6714C102.067 43.8146 101.431 43.9578 100.823 44.1011C101.056 42.812 101.252 41.4692 101.414 40.0728C101.593 38.6763 101.745 37.3335 101.87 36.0444C101.995 34.7554 102.085 33.5558 102.139 32.4458C102.21 31.3358 102.246 30.4137 102.246 29.6797C102.246 28.874 102.183 28.1579 102.058 27.5312C101.933 26.8867 101.718 26.3407 101.414 25.8931C101.127 25.4455 100.742 25.0964 100.259 24.8457C99.7754 24.5771 99.1667 24.416 98.4326 24.3623L98.6206 20.0117C100.769 19.9222 102.774 19.6984 104.636 19.3403C106.498 18.9823 108.226 18.5794 109.819 18.1318L108.799 23.4761Z" fill="black"/>
<path d="M146.746 10.7197C145.403 10.7197 144.32 11.0062 143.496 11.5791C142.69 12.152 142.288 12.9666 142.288 14.0229C142.288 14.5601 142.413 15.0703 142.664 15.5537C142.914 16.0192 143.254 16.4668 143.684 16.8965C144.114 17.3083 144.624 17.7111 145.215 18.105C145.824 18.481 146.477 18.8569 147.175 19.2329L151.875 21.7036C153.021 22.2944 154.131 22.9479 155.205 23.6641C156.279 24.3623 157.237 25.168 158.079 26.0811C158.92 26.9762 159.591 27.9967 160.093 29.1426C160.612 30.2884 160.872 31.5864 160.872 33.0366C160.872 34.3436 160.594 35.6595 160.039 36.9844C159.484 38.2913 158.589 39.473 157.354 40.5293C156.118 41.5856 154.507 42.445 152.52 43.1074C150.55 43.7699 148.133 44.1011 145.269 44.1011C144.051 44.1011 142.825 44.0563 141.589 43.9668C140.354 43.8952 139.163 43.7878 138.018 43.6445C136.872 43.5192 135.78 43.3581 134.741 43.1611C133.721 42.9821 132.808 42.7852 132.002 42.5703L132.405 30.5122H138.608L138.716 31.3984C138.787 32.0967 138.931 32.8307 139.146 33.6006C139.378 34.3704 139.763 35.0776 140.3 35.7222C140.855 36.3667 141.598 36.9038 142.529 37.3335C143.478 37.7453 144.722 37.9512 146.262 37.9512C147.712 37.9512 148.885 37.6737 149.78 37.1187C150.693 36.5636 151.15 35.7759 151.15 34.7554C151.15 34.2362 151.034 33.7617 150.801 33.332C150.568 32.8844 150.237 32.4637 149.807 32.0698C149.377 31.658 148.849 31.2642 148.223 30.8882C147.614 30.4943 146.925 30.0915 146.155 29.6797L140.918 26.8867C139.808 26.2959 138.752 25.6514 137.749 24.9531C136.746 24.2549 135.86 23.4671 135.09 22.5898C134.32 21.7126 133.703 20.7279 133.237 19.6357C132.79 18.5257 132.566 17.2725 132.566 15.876C132.566 14.9808 132.655 14.0856 132.834 13.1904C133.014 12.2773 133.318 11.409 133.748 10.5854C134.177 9.74398 134.75 8.95622 135.466 8.22217C136.182 7.48812 137.078 6.85254 138.152 6.31543C139.244 5.76042 140.524 5.33073 141.992 5.02637C143.478 4.7041 145.206 4.54297 147.175 4.54297C148.411 4.54297 149.637 4.58773 150.854 4.67725C152.072 4.74886 153.245 4.85628 154.373 4.99951C155.518 5.14274 156.593 5.31283 157.595 5.50977C158.616 5.6888 159.529 5.88574 160.334 6.10059L159.556 18.1318H153.352L153.245 17.4336C153.137 16.7533 152.985 16.0282 152.788 15.2583C152.591 14.4705 152.26 13.7454 151.794 13.083C151.347 12.4027 150.72 11.8387 149.915 11.3911C149.127 10.9435 148.07 10.7197 146.746 10.7197ZM187.244 39.8042C185.776 41.0396 184.075 41.9974 182.141 42.6777C180.225 43.3402 178.149 43.6714 175.911 43.6714C174.102 43.6714 172.473 43.4028 171.023 42.8657C169.591 42.3286 168.364 41.5588 167.344 40.5562C166.341 39.5535 165.562 38.3361 165.007 36.9038C164.47 35.4715 164.202 33.8691 164.202 32.0967C164.202 30.181 164.524 28.3727 165.168 26.6719C165.831 24.971 166.762 23.494 167.961 22.2407C169.179 20.9696 170.647 19.967 172.366 19.2329C174.084 18.4989 176 18.1318 178.113 18.1318C179.438 18.1318 180.664 18.3019 181.792 18.6421C182.938 18.9644 183.931 19.4119 184.773 19.9849C185.614 20.5578 186.268 21.2292 186.733 21.999C187.217 22.7689 187.458 23.5924 187.458 24.4697C187.458 26.2064 186.805 27.5133 185.498 28.3906C184.191 29.25 182.257 29.6797 179.697 29.6797C179.661 28.9456 179.59 28.2384 179.482 27.5581C179.393 26.8778 179.232 26.278 178.999 25.7588C178.784 25.2217 178.489 24.8009 178.113 24.4966C177.737 24.1743 177.262 24.0132 176.689 24.0132C176.045 24.0132 175.463 24.1743 174.944 24.4966C174.425 24.8188 173.986 25.2843 173.628 25.8931C173.27 26.5018 172.992 27.2358 172.795 28.0952C172.598 28.9367 172.5 29.8856 172.5 30.9419C172.5 32.0877 172.661 33.0814 172.983 33.9229C173.306 34.7464 173.762 35.4268 174.353 35.9639C174.944 36.501 175.651 36.9038 176.475 37.1724C177.316 37.423 178.247 37.5483 179.268 37.5483C180.181 37.5483 181.21 37.4499 182.356 37.2529C183.502 37.056 184.585 36.7516 185.605 36.3398L187.244 39.8042ZM198.953 23.4761C199.579 22.7599 200.242 22.0796 200.94 21.4351C201.638 20.7905 202.381 20.2266 203.169 19.7432C203.975 19.2419 204.834 18.848 205.747 18.5615C206.66 18.2751 207.645 18.1318 208.701 18.1318C209.775 18.1318 210.751 18.3198 211.628 18.6958C212.506 19.0718 213.249 19.6268 213.857 20.3608C214.484 21.077 214.958 21.9811 215.281 23.0732C215.621 24.1475 215.791 25.3828 215.791 26.7793C215.791 27.3701 215.764 28.0326 215.71 28.7666C215.657 29.4827 215.594 30.181 215.522 30.8613C215.469 31.5417 215.415 32.1593 215.361 32.7144C215.308 33.2694 215.281 33.6722 215.281 33.9229C215.281 34.5853 215.352 35.203 215.496 35.7759C215.639 36.3488 215.863 36.8501 216.167 37.2798C216.489 37.7095 216.883 38.0496 217.349 38.3003C217.832 38.533 218.396 38.6494 219.041 38.6494L218.853 43H218.315C217.026 43 215.854 43.0179 214.797 43.0537C213.759 43.1074 212.765 43.179 211.816 43.2686C210.885 43.3581 209.972 43.4834 209.077 43.6445C208.182 43.8057 207.242 43.9937 206.257 44.2085C206.49 42.9194 206.705 41.5588 206.902 40.1265C207.099 38.6942 207.26 37.3066 207.385 35.9639C207.528 34.6032 207.636 33.3499 207.708 32.2041C207.779 31.0404 207.815 30.0915 207.815 29.3574C207.815 27.8714 207.555 26.8241 207.036 26.2153C206.517 25.6066 205.747 25.3022 204.727 25.3022C203.921 25.3022 203.133 25.4365 202.363 25.7051C201.593 25.9736 200.931 26.278 200.376 26.6182C200.34 27.012 200.295 27.5492 200.242 28.2295C200.206 28.8919 200.161 29.6528 200.107 30.5122C200.072 31.3716 200.045 32.3115 200.027 33.332C200.009 34.3346 200 35.382 200 36.4741C200.018 37.5483 200.045 38.6405 200.081 39.7505C200.134 40.8605 200.215 41.9437 200.322 43C199.302 43 198.353 43.0358 197.476 43.1074C196.616 43.179 195.802 43.2775 195.032 43.4028C194.28 43.5282 193.564 43.6624 192.883 43.8057C192.221 43.9489 191.567 44.0832 190.923 44.2085C191.191 42.7046 191.415 41.0843 191.594 39.3477C191.791 37.611 191.952 35.8117 192.078 33.9497C192.221 32.0877 192.337 30.1989 192.427 28.2832C192.516 26.3496 192.579 24.4429 192.615 22.563C192.668 20.6652 192.704 18.8301 192.722 17.0576C192.74 15.2852 192.749 13.6112 192.749 12.0356C192.749 10.3527 192.445 9.09945 191.836 8.27588C191.245 7.45231 190.278 6.97786 188.936 6.85254L189.097 2.52881C190.081 2.493 191.156 2.42139 192.319 2.31396C193.483 2.18864 194.638 2.04541 195.784 1.88428C196.947 1.70524 198.049 1.5083 199.087 1.29346C200.125 1.07861 201.012 0.86377 201.746 0.648926L198.953 23.4761ZM220.652 31.8818C220.652 30.1094 220.974 28.3996 221.619 26.7524C222.281 25.0874 223.212 23.6193 224.412 22.3481C225.629 21.077 227.097 20.0565 228.816 19.2866C230.535 18.5168 232.45 18.1318 234.563 18.1318C236.658 18.1318 238.457 18.4272 239.961 19.0181C241.465 19.591 242.709 20.3877 243.694 21.4082C244.679 22.4287 245.404 23.6283 245.869 25.0068C246.335 26.3854 246.567 27.8714 246.567 29.4648C246.567 31.4521 246.191 33.3141 245.439 35.0508C244.705 36.7874 243.712 38.2913 242.458 39.5625C241.205 40.8337 239.746 41.8363 238.081 42.5703C236.434 43.3044 234.697 43.6714 232.871 43.6714C230.597 43.6714 228.682 43.3581 227.124 42.7314C225.566 42.0869 224.304 41.2275 223.337 40.1533C222.389 39.0612 221.699 37.8079 221.27 36.3936C220.858 34.9613 220.652 33.4574 220.652 31.8818ZM228.95 30.9419C228.95 31.9803 229.067 32.9202 229.299 33.7617C229.55 34.5853 229.881 35.2925 230.293 35.8833C230.705 36.4741 231.188 36.9307 231.743 37.2529C232.298 37.5573 232.889 37.7095 233.516 37.7095C234.178 37.7095 234.796 37.5573 235.369 37.2529C235.959 36.9307 236.461 36.4741 236.873 35.8833C237.302 35.2925 237.633 34.5853 237.866 33.7617C238.117 32.9202 238.242 31.9803 238.242 30.9419C238.242 29.8677 238.117 28.9098 237.866 28.0684C237.633 27.209 237.302 26.4839 236.873 25.8931C236.461 25.2843 235.959 24.8188 235.369 24.4966C234.796 24.1743 234.178 24.0132 233.516 24.0132C232.889 24.0132 232.298 24.1743 231.743 24.4966C231.188 24.8188 230.705 25.2843 230.293 25.8931C229.881 26.4839 229.55 27.209 229.299 28.0684C229.067 28.9098 228.95 29.8677 228.95 30.9419ZM248.904 31.8818C248.904 30.1094 249.226 28.3996 249.871 26.7524C250.533 25.0874 251.464 23.6193 252.664 22.3481C253.881 21.077 255.349 20.0565 257.068 19.2866C258.787 18.5168 260.702 18.1318 262.815 18.1318C264.91 18.1318 266.709 18.4272 268.213 19.0181C269.717 19.591 270.961 20.3877 271.946 21.4082C272.931 22.4287 273.656 23.6283 274.121 25.0068C274.587 26.3854 274.819 27.8714 274.819 29.4648C274.819 31.4521 274.443 33.3141 273.691 35.0508C272.957 36.7874 271.964 38.2913 270.71 39.5625C269.457 40.8337 267.998 41.8363 266.333 42.5703C264.686 43.3044 262.949 43.6714 261.123 43.6714C258.849 43.6714 256.934 43.3581 255.376 42.7314C253.818 42.0869 252.556 41.2275 251.589 40.1533C250.64 39.0612 249.951 37.8079 249.521 36.3936C249.11 34.9613 248.904 33.4574 248.904 31.8818ZM257.202 30.9419C257.202 31.9803 257.319 32.9202 257.551 33.7617C257.802 34.5853 258.133 35.2925 258.545 35.8833C258.957 36.4741 259.44 36.9307 259.995 37.2529C260.55 37.5573 261.141 37.7095 261.768 37.7095C262.43 37.7095 263.048 37.5573 263.621 37.2529C264.211 36.9307 264.713 36.4741 265.125 35.8833C265.554 35.2925 265.885 34.5853 266.118 33.7617C266.369 32.9202 266.494 31.9803 266.494 30.9419C266.494 29.8677 266.369 28.9098 266.118 28.0684C265.885 27.209 265.554 26.4839 265.125 25.8931C264.713 25.2843 264.211 24.8188 263.621 24.4966C263.048 24.1743 262.43 24.0132 261.768 24.0132C261.141 24.0132 260.55 24.1743 259.995 24.4966C259.44 24.8188 258.957 25.2843 258.545 25.8931C258.133 26.4839 257.802 27.209 257.551 28.0684C257.319 28.9098 257.202 29.8677 257.202 30.9419ZM287.441 32.8755C287.441 33.5737 287.513 34.272 287.656 34.9702C287.799 35.6506 288.023 36.2682 288.328 36.8232C288.632 37.3604 289.017 37.799 289.482 38.1392C289.948 38.4793 290.512 38.6494 291.174 38.6494L291.013 43H290.396C289.214 43 288.095 43.0179 287.039 43.0537C285.982 43.0895 284.962 43.1432 283.977 43.2148C283.01 43.3044 282.07 43.4207 281.157 43.564C280.244 43.7072 279.331 43.8862 278.418 44.1011C278.866 40.7531 279.206 37.5394 279.438 34.46C279.689 31.3626 279.868 28.4533 279.976 25.7319C280.101 22.9927 280.173 20.4683 280.19 18.1587C280.226 15.8491 280.244 13.8081 280.244 12.0356C280.244 10.3527 279.94 9.09945 279.331 8.27588C278.74 7.45231 277.773 6.97786 276.431 6.85254L276.592 2.52881C277.576 2.493 278.651 2.42139 279.814 2.31396C280.978 2.18864 282.133 2.04541 283.279 1.88428C284.443 1.70524 285.544 1.5083 286.582 1.29346C287.62 1.07861 288.507 0.86377 289.241 0.648926C288.757 4.53402 288.39 8.10579 288.14 11.3643C287.907 14.6048 287.737 17.5589 287.629 20.2266C287.522 22.8763 287.459 25.2575 287.441 27.3701C287.441 29.4648 287.441 31.3 287.441 32.8755Z" fill="#EA524D"/>
</svg>
